PathFileType	4	(X/Y/Z)	S1_rest_slow_right.trc
DataRate	CameraRate	NumFrames	NumMarkers	Units	OrigDataRate	OrigDataStartFrame	OrigNumFrames
250.00	250.00	12	18	mm	250.00	15671	25073
Frame#	Time	c7	r_should	l_should	clavicle	r_upa	r_elb_l	r_elb_m	r_low	r_wri_l	r_wri_m	r_met	l_upa	l_elb_l	l_elb_m	l_low	l_wri_l	l_wri_m	l_met
	X1	Y1	Z1	X2	Y2	Z2	X3	Y3	Z3	X4	Y4	Z4	X5	Y5	Z5	X6	Y6	Z6	X7	Y7	Z7	X8	Y8	Z8	X9	Y9	Z9	X10	Y10	Z10	X11	Y11	Z11	X12	Y12	Z12	X13	Y13	Z13	X14	Y14	Z14	X15	Y15	Z15	X16	Y16	Z16	X17	Y17	Z17	X18	Y18	Z18
15671	62.68000	383.09903	1417.69214	27.57132	448.91946	1362.46350	192.35675	414.59357	1364.12219	-170.52991	524.93787	1304.77710	-2.12671	439.67935	1154.10522	247.92252	461.04898	1084.26489	261.60495	nan	nan	nan	554.95520	997.21155	241.21356	652.82428	1031.74243	270.94925	656.27631	1012.14050	195.91638	715.88361	981.51306	289.34998	396.91739	1154.39941	-236.52577	401.57635	1074.96765	-257.30133	343.60443	1039.80237	-181.64075	392.97528	928.46002	-266.13696	492.48801	865.72864	-244.44208	428.34476	836.82751	-261.02115	526.20740	792.93469	-271.99524
15672	62.68400	383.12747	1417.70349	27.53035	448.86838	1362.51514	192.33876	414.67722	1364.11328	-170.53166	524.98431	1304.79358	-2.11041	439.75790	1154.14380	247.89360	461.13303	1084.44287	261.57523	nan	nan	nan	555.26862	997.66840	241.12917	652.97253	1032.84766	270.83795	656.54297	1013.23248	195.74519	716.27869	982.90570	289.23251	396.99219	1154.38623	-236.52458	401.63498	1074.95459	-257.29047	343.64667	1039.80273	-181.63803	393.00012	928.44794	-266.12167	492.50668	865.69653	-244.41078	428.35254	836.80463	-260.99695	526.28851	792.93744	-272.02283
15673	62.68800	383.15274	1417.71106	27.49186	448.81778	1362.56250	192.32025	414.75662	1364.10645	-170.54828	525.03217	1304.80859	-2.08856	439.83551	1154.18604	247.87108	461.21640	1084.62524	261.54391	nan	nan	nan	555.56702	998.13544	241.03731	653.12524	1033.94019	270.72113	656.81158	1014.29749	195.59073	716.69867	984.30853	289.07361	397.06583	1154.37439	-236.51585	401.69812	1074.94592	-257.27359	343.67734	1039.80872	-181.63078	393.02896	928.43530	-266.10797	492.52905	865.67200	-244.38741	428.36258	836.78381	-260.97910	526.30304	793.05084	-272.22067
15674	62.69200	383.17020	1417.71509	27.45436	448.76752	1362.60657	192.30115	414.83865	1364.09595	-170.56334	525.07153	1304.82336	-2.07187	439.89972	1154.22913	247.84383	461.30341	1084.80981	261.52188	nan	nan	nan	555.87170	998.59845	240.93967	653.25854	1035.03784	270.59216	657.08087	1015.34222	195.47449	717.12170	985.67725	288.89572	397.13376	1154.35767	-236.49626	401.76529	1074.93188	-257.26062	343.71887	1039.80969	-181.62024	393.06119	928.41736	-266.09161	492.56183	865.65912	-244.37640	428.37122	836.76251	-260.95532	526.40674	793.11627	-272.36749
15675	62.69600	383.18652	1417.71936	27.42625	448.70679	1362.65430	192.27589	414.92023	1364.09204	-170.57094	525.11218	1304.83191	-2.05736	439.95749	1154.27197	247.83051	461.38794	1085.00098	261.50037	nan	nan	nan	556.17749	999.06610	240.84689	653.39563	1036.14111	270.45724	657.34424	1016.38416	195.32797	717.52850	987.05872	288.75531	397.21027	1154.33289	-236.48856	401.83682	1074.91443	-257.24603	343.76974	1039.81445	-181.61436	393.09903	928.40002	-266.07495	492.60657	865.67102	-244.38556	428.37997	836.73877	-260.92987	526.78851	792.88226	-271.98044
15676	62.70000	383.20349	1417.72839	27.39180	448.63678	1362.70801	192.25307	414.99582	1364.08923	-170.58664	525.14618	1304.84106	-2.04187	440.00684	1154.33008	247.81374	461.45847	1085.19141	261.47821	nan	nan	nan	556.24011	1000.18909	241.07843	653.53577	1037.22998	270.31448	657.51685	1017.09747	195.21893	718.65112	988.04163	288.16254	397.28693	1154.31946	-236.47839	401.90314	1074.89819	-257.22867	343.81006	1039.81665	-181.61053	393.13989	928.38416	-266.05676	492.65521	865.70764	-244.40935	428.40244	836.72015	-260.90103	526.44385	792.94244	-272.12738
15677	62.70400	383.21280	1417.73389	27.35337	448.56589	1362.76685	192.23210	415.06168	1364.09082	-170.60797	525.17889	1304.85205	-2.02777	440.06021	1154.39832	247.79489	461.54218	1085.38770	261.46140	445.93695	1035.44043	172.18144	556.03790	1002.14124	241.69907	653.64679	1038.32678	270.19098	nan	nan	nan	720.78912	988.47357	286.98611	397.36426	1154.30798	-236.46573	401.96753	1074.88464	-257.20792	343.85629	1039.81665	-181.60518	393.18225	928.36835	-266.03940	492.71506	865.75549	-244.43655	428.42776	836.70020	-260.87323	525.71149	792.90143	-272.16983
15678	62.70800	383.21722	1417.72998	27.31412	448.48834	1362.83130	192.21951	415.12405	1364.09766	-170.62296	525.20911	1304.86694	-2.02050	440.10214	1154.46619	247.77705	461.63074	1085.57654	261.44464	446.05533	1035.53357	172.14627	556.28369	1003.04602	241.76434	653.76508	1039.41382	270.09567	nan	nan	nan	721.06848	989.87305	286.89630	397.44080	1154.30518	-236.44875	402.04764	1074.86096	-257.17120	343.91757	1039.81873	-181.58606	393.22568	928.36041	-266.02124	492.79218	865.81311	-244.46541	428.45578	836.68140	-260.84500	525.54547	792.85992	-272.15427
15679	62.71200	383.22635	1417.73499	27.28365	448.39240	1362.89758	192.19183	415.19022	1364.10400	-170.63008	525.24207	1304.88428	-1.99758	440.13705	1154.53894	247.77814	461.72357	1085.76746	261.41235	446.20471	1035.66418	172.11032	556.61139	1003.71161	241.71019	653.88043	1040.50061	269.99127	nan	nan	nan	720.52258	991.74890	287.25323	397.51733	1154.29688	-236.43112	402.13165	1074.84070	-257.13031	343.97287	1039.81995	-181.56868	393.26657	928.35944	-265.99557	492.88885	865.87976	-244.49620	428.49484	836.65704	-260.81027	525.51978	792.83856	-272.12231
15680	62.71600	383.22662	1417.74084	27.24827	448.29147	1362.95544	192.16273	415.25647	1364.10913	-170.64705	525.27203	1304.90283	-1.96817	440.16434	1154.61584	247.78122	461.82529	1085.96509	261.38541	446.36374	1035.78442	172.09157	556.95441	1004.32300	241.65016	653.98932	1041.59790	269.88693	nan	nan	nan	722.22913	992.39154	286.28986	397.60962	1154.28992	-236.41217	402.21777	1074.82654	-257.09131	344.02014	1039.82324	-181.55771	393.31979	928.35931	-265.96954	492.98700	865.94775	-244.52751	428.53760	836.63440	-260.76608	525.54431	792.80963	-272.06561
15681	62.72000	383.22739	1417.74939	27.20982	448.19287	1363.00854	192.14389	415.32559	1364.11047	-170.66106	525.30359	1304.92810	-1.94020	440.20026	1154.69995	247.78181	461.93408	1086.17603	261.37598	446.51688	1035.93408	172.07265	557.31403	1004.91248	241.60156	654.10455	1042.67932	269.77194	nan	nan	nan	722.20105	993.90424	286.40973	397.70337	1154.28589	-236.38956	402.30350	1074.81482	-257.06305	344.08008	1039.82874	-181.54469	393.37964	928.35529	-265.94693	493.01773	865.82367	-244.40479	428.58487	836.62256	-260.72806	525.58624	792.76453	-272.01276
15682	62.72400	383.22711	1417.76172	27.17149	448.09509	1363.05408	192.11353	415.39783	1364.11035	-170.67575	525.34210	1304.95508	-1.91043	440.23648	1154.77698	247.78023	462.04285	1086.38257	261.36615	446.61917	1036.04663	172.06091	558.71960	1004.89520	241.04552	654.20758	1043.76184	269.67560	nan	nan	nan	721.66962	995.71143	286.77792	397.79886	1154.27539	-236.36902	402.39410	1074.80542	-257.02338	344.14319	1039.83447	-181.52925	393.44681	928.33813	-265.91211	492.97003	865.45135	-244.09146	428.63882	836.62097	-260.68463	525.63318	792.74384	-271.96426
